<svg xmlns="http://www.w3.org/2000/svg" xmlns:xlink="http://www.w3.org/1999/xlink" viewBox="0 0 68.73 68.1"><defs><style>.cls-1{isolation:isolate;}.cls-2{fill:#615f5f;opacity:0.6;mix-blend-mode:multiply;}.cls-3{fill:none;stroke-miterlimit:10;stroke:url(#Gradiente_sem_nome_207);}.cls-4{fill:#f3cc23;}.cls-5{fill:#2584b6;}.cls-6{fill:#0c0a0d;}</style><radialGradient id="Gradiente_sem_nome_207" cx="33.42" cy="33.42" r="33.42" gradientUnits="userSpaceOnUse"><stop offset="0.67" stop-color="#fff"/><stop offset="1" stop-color="#f2f3f4"/></radialGradient></defs><title>Proposta Site - 9 - Outubro</title><g class="cls-1"><g id="Camada_1" data-name="Camada 1"><circle class="cls-2" cx="35.81" cy="35.18" r="32.92"/><circle class="cls-3" cx="33.42" cy="33.42" r="32.92"/><circle class="cls-4" cx="33.42" cy="33.42" r="30.96"/><path class="cls-4" d="M53.06,25.69c0-5.83-6-10.56-13.29-10.56s-13.3,4.73-13.3,10.56c0,5.21,4.75,9.54,11,10.41h0a6.62,6.62,0,0,1-1.81,5.71,6.53,6.53,0,0,0,6.44-5.71h0C48.31,35.23,53.06,30.9,53.06,25.69Z"/><path class="cls-5" d="M39.8,48.83a53.16,53.16,0,0,0-4.16-3.7L32.5,48.27,19.93,35.7l3.14-3.14a53.61,53.61,0,0,0-3.71-4.17,53.61,53.61,0,0,0-4.17-3.71s-3.76,3.47-4,6.21c-.34,3.68,3.55,10.36,9.66,16.47S33.63,57.36,37.3,57c2.75-.25,6.21-4,6.21-4A53.26,53.26,0,0,0,39.8,48.83Z"/><path class="cls-6" d="M49.6,17.68a15.8,15.8,0,0,0-9.83-3.25,15.83,15.83,0,0,0-9.84,3.25,10.22,10.22,0,0,0-4.16,8c0,5.35,4.61,9.91,11.05,11a5.91,5.91,0,0,1-1.68,4.61.7.7,0,0,0,.5,1.19,7.23,7.23,0,0,0,7-5.79A15,15,0,0,0,50.38,33a10.08,10.08,0,0,0,3.38-7.35A10.19,10.19,0,0,0,49.6,17.68ZM42,35.41a.7.7,0,0,0-.6.74h0a5.83,5.83,0,0,1-4.14,4.72,7.32,7.32,0,0,0,1-4.73h0a.7.7,0,0,0-.6-.73c-6-.84-10.4-4.92-10.4-9.72,0-5.44,5.65-9.86,12.6-9.86s12.6,4.42,12.6,9.86C52.37,30.49,48,34.57,42,35.41Z"/><path class="cls-6" d="M35.08,25a.75.75,0,0,0-.75.74.76.76,0,0,0,.75.75.75.75,0,0,0,.74-.75A.74.74,0,0,0,35.08,25Z"/><path class="cls-6" d="M44.45,25a.74.74,0,0,0-.74.74.75.75,0,1,0,.74-.74Z"/><path class="cls-6" d="M39.77,25a.75.75,0,0,0-.75.74.76.76,0,0,0,.75.75.75.75,0,0,0,.74-.75A.74.74,0,0,0,39.77,25Z"/><path class="cls-6" d="M40.3,48.34a53,53,0,0,0-4.23-3.76.7.7,0,0,0-.93.05L32.5,47.28l-8.6-8.59a.7.7,0,0,0-1,1L32,48.76a.69.69,0,0,0,1,0l2.7-2.69c.74.6,2.22,1.86,3.62,3.26S42,52.22,42.58,53c-1.18,1.17-3.56,3.2-5.34,3.36-3.48.33-10-3.56-15.91-9.45S11.55,34.43,11.87,31c.17-1.78,2.2-4.17,3.36-5.34.74.6,2.23,1.86,3.64,3.27s2.65,2.88,3.26,3.62l-2.7,2.7a.69.69,0,0,0,0,1l1.51,1.51a.7.7,0,0,0,1-1l-1-1,2.64-2.65a.69.69,0,0,0,.06-.92,55.35,55.35,0,0,0-3.76-4.23,52.16,52.16,0,0,0-4.24-3.76.68.68,0,0,0-.9,0c-.16.15-4,3.68-4.24,6.66-.36,3.92,3.6,10.76,9.86,17,6,6,12.53,9.89,16.52,9.89l.51,0c3-.28,6.51-4.08,6.66-4.24a.71.71,0,0,0,0-.91A53,53,0,0,0,40.3,48.34Z"/></g></g></svg>